<svg width="304" height="304" viewBox="0 0 304 304" fill="none" xmlns="http://www.w3.org/2000/svg">
<g clip-path="url(#clip0_41_114)">
<path fill-rule="evenodd" clip-rule="evenodd" d="M188.71 10.859C188.71 9.83551 188.239 8.85397 187.401 8.13027C186.563 7.40657 185.427 7 184.242 7H59.1452C46.1111 7 33.6108 11.4723 24.3943 19.4329C15.1778 27.3936 10 38.1906 10 49.4487V265.551C10 276.809 15.1778 287.606 24.3943 295.567C33.6108 303.528 46.1111 308 59.1452 308H237.855C250.889 308 263.389 303.528 272.606 295.567C281.822 287.606 287 276.809 287 265.551V113.461C287 112.438 286.529 111.456 285.691 110.733C284.854 110.009 283.717 109.602 282.532 109.602H202.113C198.558 109.602 195.149 108.383 192.635 106.212C190.122 104.041 188.71 101.096 188.71 98.0255V10.859ZM202.113 161.359C205.668 161.359 209.077 162.579 211.59 164.75C214.104 166.921 215.516 169.866 215.516 172.936C215.516 176.006 214.104 178.951 211.59 181.122C209.077 183.293 205.668 184.513 202.113 184.513H94.8871C91.3323 184.513 87.9232 183.293 85.4096 181.122C82.896 178.951 81.4839 176.006 81.4839 172.936C81.4839 169.866 82.896 166.921 85.4096 164.75C87.9232 162.579 91.3323 161.359 94.8871 161.359H202.113ZM202.113 223.103C205.668 223.103 209.077 224.322 211.59 226.493C214.104 228.664 215.516 231.609 215.516 234.679C215.516 237.75 214.104 240.695 211.59 242.866C209.077 245.037 205.668 246.256 202.113 246.256H94.8871C91.3323 246.256 87.9232 245.037 85.4096 242.866C82.896 240.695 81.4839 237.75 81.4839 234.679C81.4839 231.609 82.896 228.664 85.4096 226.493C87.9232 224.322 91.3323 223.103 94.8871 223.103H202.113Z" fill="#E4C9FB"/>
<path d="M218 15.5681C218 12.7342 221.288 10.9322 223.724 12.7034C225.791 14.2128 227.626 15.9686 229.227 17.9708L280.558 82.6116C281.716 84.0902 280.455 86 278.445 86H222.259C221.13 86 220.046 85.5943 219.247 84.8722C218.449 84.1501 218 83.1708 218 82.1496V15.5681Z" fill="#E4C9FB"/>
</g>
<defs>
<clipPath id="clip0_41_114">
<rect width="304" height="304" rx="25" fill="white"/>
</clipPath>
</defs>
</svg>
