<svg width="82" height="75" viewBox="0 0 82 75" fill="none" xmlns="http://www.w3.org/2000/svg">
<g clip-path="url(#clip0_67_146)">
<path d="M26.4688 56.5859C24.2617 56.5859 22.2598 56.0586 20.4629 55.0039C18.6855 53.9492 17.2793 52.4941 16.2441 50.6387C15.2285 48.7637 14.7207 46.6738 14.7207 44.3691V41.5859C14.7207 41.4297 14.7988 41.3516 14.9551 41.3516H21.752C21.9082 41.3516 21.9863 41.459 21.9863 41.6738V44.3691C21.9863 45.834 22.4062 47.0352 23.2461 47.9727C24.0859 48.8906 25.1602 49.3496 26.4688 49.3496C27.6797 49.3496 28.7246 48.8516 29.6035 47.8555C30.4824 46.8398 30.9219 45.6777 30.9219 44.3691V14.5449C30.9219 14.3887 31 14.3105 31.1562 14.3105H37.8945C38.0508 14.3105 38.1289 14.4082 38.1289 14.6035L38.1875 44.3691C38.1875 46.5566 37.6602 48.5781 36.6055 50.4336C35.5312 52.3086 34.1152 53.8027 32.3574 54.916C30.5996 56.0293 28.6367 56.5859 26.4688 56.5859ZM49.7305 56H42.9922C42.7969 56 42.6992 55.9023 42.6992 55.707L42.8164 14.4863C42.8164 14.3301 42.8945 14.252 43.0508 14.252H54.5938C58.2656 14.252 61.166 15.375 63.2949 17.6211C65.4434 19.8477 66.5176 22.8848 66.5176 26.7324C66.5176 29.5449 65.9609 31.9961 64.8477 34.0859C63.7148 36.1562 62.25 37.7578 60.4531 38.8906C58.6562 40.0234 56.7031 40.5898 54.5938 40.5898H50.0234V55.707C50.0234 55.9023 49.9258 56 49.7305 56ZM54.5938 21.3711L50.0234 21.4297V33.3242H54.5938C55.8633 33.3242 56.9668 32.7188 57.9043 31.5078C58.8418 30.2773 59.3105 28.6855 59.3105 26.7324C59.3105 25.1699 58.8906 23.8906 58.0508 22.8945C57.2109 21.8789 56.0586 21.3711 54.5938 21.3711Z" fill="#E4C9FB"/>
<path d="M20.4629 55.0039L19.9526 55.8639L19.9567 55.8663L20.4629 55.0039ZM16.2441 50.6387L15.3648 51.115L15.3709 51.1259L16.2441 50.6387ZM23.2461 47.9727L22.5012 48.6399L22.5083 48.6477L23.2461 47.9727ZM29.6035 47.8555L30.3534 48.5171L30.3597 48.5098L29.6035 47.8555ZM38.1289 14.6035L37.1289 14.6035L37.1289 14.6055L38.1289 14.6035ZM38.1875 44.3691L39.1875 44.3691L39.1875 44.3672L38.1875 44.3691ZM36.6055 50.4336L37.4732 50.9307L37.4748 50.9278L36.6055 50.4336ZM26.4688 56.5859V55.5859C24.4287 55.5859 22.6033 55.1007 20.9691 54.1415L20.4629 55.0039L19.9567 55.8663C21.9162 57.0165 24.0947 57.5859 26.4688 57.5859V56.5859ZM20.4629 55.0039L20.9732 54.1439C19.352 53.1819 18.0691 51.8574 17.1174 50.1515L16.2441 50.6387L15.3709 51.1259C16.4895 53.1309 18.0191 54.7165 19.9526 55.8639L20.4629 55.0039ZM16.2441 50.6387L17.1234 50.1624C16.1933 48.4453 15.7207 46.5213 15.7207 44.3691H14.7207H13.7207C13.7207 46.8264 14.2637 49.082 15.3648 51.115L16.2441 50.6387ZM14.7207 44.3691H15.7207V41.5859H14.7207H13.7207V44.3691H14.7207ZM14.7207 41.5859H15.7207C15.7207 41.662 15.701 41.9026 15.4864 42.1173C15.2718 42.3319 15.0311 42.3516 14.9551 42.3516V41.3516V40.3516C14.7228 40.3516 14.3649 40.4103 14.0722 40.703C13.7794 40.9958 13.7207 41.3537 13.7207 41.5859H14.7207ZM14.9551 41.3516V42.3516H21.752V41.3516V40.3516H14.9551V41.3516ZM21.752 41.3516V42.3516C21.6771 42.3516 21.564 42.3386 21.4378 42.2808C21.3062 42.2204 21.1972 42.1279 21.119 42.0203C21.0451 41.9187 21.0135 41.8247 20.9998 41.7684C20.9863 41.7128 20.9863 41.6775 20.9863 41.6738H21.9863H22.9863C22.9863 41.4749 22.9555 41.1451 22.7365 40.844C22.4744 40.4836 22.0858 40.3516 21.752 40.3516V41.3516ZM21.9863 41.6738H20.9863V44.3691H21.9863H22.9863V41.6738H21.9863ZM21.9863 44.3691H20.9863C20.9863 46.0374 21.4706 47.4894 22.5013 48.6399L23.2461 47.9727L23.9909 47.3054C23.3419 46.5809 22.9863 45.6306 22.9863 44.3691H21.9863ZM23.2461 47.9727L22.5083 48.6477C23.5484 49.7845 24.8959 50.3496 26.4688 50.3496V49.3496V48.3496C25.4244 48.3496 24.6235 47.9968 23.9839 47.2976L23.2461 47.9727ZM26.4688 49.3496V50.3496C27.9964 50.3496 29.3053 49.7049 30.3534 48.5171L29.6035 47.8555L28.8537 47.1938C28.1439 47.9982 27.3629 48.3496 26.4688 48.3496V49.3496ZM29.6035 47.8555L30.3597 48.5098C31.3913 47.3177 31.9219 45.9249 31.9219 44.3691H30.9219H29.9219C29.9219 45.4305 29.5735 46.362 28.8473 47.2011L29.6035 47.8555ZM30.9219 44.3691H31.9219V14.5449H30.9219H29.9219V44.3691H30.9219ZM30.9219 14.5449H31.9219C31.9219 14.6209 31.9022 14.8616 31.6876 15.0762C31.473 15.2909 31.2323 15.3105 31.1562 15.3105V14.3105V13.3105C30.924 13.3105 30.5661 13.3693 30.2734 13.662C29.9806 13.9548 29.9219 14.3127 29.9219 14.5449H30.9219ZM31.1562 14.3105V15.3105H37.8945V14.3105V13.3105H31.1562V14.3105ZM37.8945 14.3105V15.3105C37.752 15.3105 37.4866 15.2549 37.2894 15.0085C37.1264 14.8046 37.1289 14.6127 37.1289 14.6035H38.1289H39.1289C39.1289 14.399 39.0924 14.0606 38.8512 13.7591C38.5759 13.415 38.1934 13.3105 37.8945 13.3105V14.3105ZM38.1289 14.6035L37.1289 14.6055L37.1875 44.3711L38.1875 44.3691L39.1875 44.3672L39.1289 14.6015L38.1289 14.6035ZM38.1875 44.3691H37.1875C37.1875 46.3879 36.703 48.2385 35.7361 49.9394L36.6055 50.4336L37.4748 50.9278C38.6173 48.9178 39.1875 46.7254 39.1875 44.3691H38.1875ZM36.6055 50.4336L35.7378 49.9365C34.7413 51.6759 33.4373 53.0484 31.8224 54.0712L32.3574 54.916L32.8925 55.7608C34.7932 54.557 36.3212 52.9413 37.4732 50.9307L36.6055 50.4336ZM32.3574 54.916L31.8224 54.0712C30.2315 55.0787 28.4556 55.5859 26.4688 55.5859V56.5859V57.5859C28.8178 57.5859 30.9677 56.9799 32.8925 55.7608L32.3574 54.916ZM42.6992 55.707L41.6992 55.7042V55.707H42.6992ZM42.8164 14.4863L43.8164 14.4892V14.4863H42.8164ZM63.2949 17.6211L62.5691 18.309L62.5753 18.3155L63.2949 17.6211ZM64.8477 34.0859L65.725 34.566L65.7302 34.5561L64.8477 34.0859ZM60.4531 38.8906L60.9864 39.7366L60.4531 38.8906ZM50.0234 40.5898V39.5898H49.0234V40.5898H50.0234ZM54.5938 21.3711V20.371L54.5809 20.3712L54.5938 21.3711ZM50.0234 21.4297L50.0106 20.4298L49.0234 20.4424V21.4297H50.0234ZM50.0234 33.3242H49.0234V34.3242H50.0234V33.3242ZM57.9043 31.5078L58.695 32.12L58.6997 32.1139L57.9043 31.5078ZM58.0508 22.8945L57.2801 23.5318L57.2863 23.5391L58.0508 22.8945ZM49.7305 56V55H42.9922V56V57H49.7305V56ZM42.9922 56V55C43.0487 55 43.2747 55.0148 43.4796 55.2197C43.6844 55.4245 43.6992 55.6505 43.6992 55.707H42.6992H41.6992C41.6992 55.9588 41.7628 56.3314 42.0654 56.6339C42.3679 56.9364 42.7404 57 42.9922 57V56ZM42.6992 55.707L43.6992 55.7099L43.8164 14.4892L42.8164 14.4863L41.8164 14.4835L41.6992 55.7042L42.6992 55.707ZM42.8164 14.4863H43.8164C43.8164 14.5623 43.7967 14.803 43.5821 15.0177C43.3675 15.2323 43.1268 15.252 43.0508 15.252V14.252V13.252C42.8185 13.252 42.4606 13.3107 42.1679 13.6034C41.8752 13.8962 41.8164 14.2541 41.8164 14.4863H42.8164ZM43.0508 14.252V15.252H54.5938V14.252V13.252H43.0508V14.252ZM54.5938 14.252V15.252C58.0466 15.252 60.6641 16.2991 62.5691 18.309L63.2949 17.6211L64.0207 16.9332C61.6679 14.4509 58.4847 13.252 54.5938 13.252V14.252ZM63.2949 17.6211L62.5753 18.3155C64.5025 20.3128 65.5176 23.0774 65.5176 26.7324H66.5176H67.5176C67.5176 22.6921 66.3842 19.3825 64.0145 16.9267L63.2949 17.6211ZM66.5176 26.7324H65.5176C65.5176 29.4117 64.988 31.6955 63.9651 33.6158L64.8477 34.0859L65.7302 34.5561C66.9339 32.2967 67.5176 29.6782 67.5176 26.7324H66.5176ZM64.8477 34.0859L63.9704 33.6059C62.91 35.5439 61.5573 37.0124 59.9198 38.0447L60.4531 38.8906L60.9864 39.7366C62.9427 38.5033 64.5197 36.7686 65.7249 34.5659L64.8477 34.0859ZM60.4531 38.8906L59.9198 38.0447C58.2814 39.0776 56.513 39.5898 54.5938 39.5898V40.5898V41.5898C56.8933 41.5898 59.0311 40.9693 60.9864 39.7366L60.4531 38.8906ZM54.5938 40.5898V39.5898H50.0234V40.5898V41.5898H54.5938V40.5898ZM50.0234 40.5898H49.0234V55.707H50.0234H51.0234V40.5898H50.0234ZM50.0234 55.707H49.0234C49.0234 55.6505 49.0382 55.4245 49.2431 55.2197C49.4479 55.0148 49.674 55 49.7305 55V56V57C49.9823 57 50.3548 56.9364 50.6573 56.6339C50.9598 56.3314 51.0234 55.9588 51.0234 55.707H50.0234ZM54.5938 21.3711L54.5809 20.3712L50.0106 20.4298L50.0234 21.4297L50.0363 22.4296L54.6066 22.371L54.5938 21.3711ZM50.0234 21.4297H49.0234V33.3242H50.0234H51.0234V21.4297H50.0234ZM50.0234 33.3242V34.3242H54.5938V33.3242V32.3242H50.0234V33.3242ZM54.5938 33.3242V34.3242C56.2375 34.3242 57.6117 33.5192 58.695 32.12L57.9043 31.5078L57.1136 30.8956C56.3219 31.9183 55.489 32.3242 54.5938 32.3242V33.3242ZM57.9043 31.5078L58.6997 32.1139C59.8014 30.6679 60.3105 28.8462 60.3105 26.7324H59.3105H58.3105C58.3105 28.5249 57.8822 29.8867 57.1089 30.9018L57.9043 31.5078ZM59.3105 26.7324H60.3105C60.3105 24.9831 59.8361 23.4607 58.8153 22.2499L58.0508 22.8945L57.2863 23.5391C57.9451 24.3206 58.3105 25.3568 58.3105 26.7324H59.3105ZM58.0508 22.8945L58.8214 22.2573C57.7689 20.9844 56.3191 20.3711 54.5938 20.3711V21.3711V22.3711C55.7981 22.3711 56.653 22.7734 57.2801 23.5318L58.0508 22.8945Z" fill="#E4C9FB"/>
</g>
<defs>
<clipPath id="clip0_67_146">
<rect width="82" height="75" fill="white"/>
</clipPath>
</defs>
</svg>
