<svg width="304" height="304" viewBox="0 0 304 304" fill="none" xmlns="http://www.w3.org/2000/svg">
<g clip-path="url(#clip0_41_4)">
<path d="M281.497 0H22.4437C10.0344 0 0 9.79688 0 21.9094V282.031C0 294.144 10.0344 304 22.4437 304H281.497C293.906 304 304 294.144 304 282.091V21.9094C304 9.79688 293.906 0 281.497 0ZM90.1906 259.053H45.0656V113.941H90.1906V259.053ZM67.6281 94.1688C53.1406 94.1688 41.4438 82.4719 41.4438 68.0437C41.4438 53.6156 53.1406 41.9187 67.6281 41.9187C82.0563 41.9187 93.7531 53.6156 93.7531 68.0437C93.7531 82.4125 82.0563 94.1688 67.6281 94.1688ZM259.053 259.053H213.988V188.516C213.988 171.712 213.691 150.041 190.534 150.041C167.081 150.041 163.519 168.387 163.519 187.328V259.053H118.513V113.941H161.737V133.772H162.331C168.328 122.372 183.053 110.319 204.963 110.319C250.622 110.319 259.053 140.363 259.053 179.431V259.053Z" fill="#E4C9FB"/>
</g>
<defs>
<clipPath id="clip0_41_4">
<rect width="304" height="304" fill="white"/>
</clipPath>
</defs>
</svg>
