<svg width="1153" height="625" viewBox="0 0 1153 625" fill="none" xmlns="http://www.w3.org/2000/svg">
<g clip-path="url(#clip0_61_128)">
<path d="M127.477 331.906C112.763 331.906 99.4167 328.391 87.4375 321.359C75.5885 314.328 66.2135 304.628 59.3125 292.258C52.5417 279.758 49.1562 265.826 49.1562 250.461V231.906C49.1562 230.865 49.6771 230.344 50.7188 230.344H96.0312C97.0729 230.344 97.5938 231.06 97.5938 232.492V250.461C97.5938 260.227 100.393 268.234 105.992 274.484C111.591 280.604 118.753 283.664 127.477 283.664C135.549 283.664 142.516 280.344 148.375 273.703C154.234 266.932 157.164 259.185 157.164 250.461V51.6328C157.164 50.5911 157.685 50.0703 158.727 50.0703H203.648C204.69 50.0703 205.211 50.7214 205.211 52.0234L205.602 250.461C205.602 265.044 202.086 278.521 195.055 290.891C187.893 303.391 178.453 313.352 166.734 320.773C155.016 328.195 141.93 331.906 127.477 331.906ZM309.703 331.906C295.51 331.906 282.424 328.26 270.445 320.969C258.596 313.677 249.026 303.977 241.734 291.867C234.573 279.628 230.992 266.216 230.992 251.633L231.383 124.875C231.383 110.031 234.964 96.6849 242.125 84.8359C249.156 72.8568 258.661 63.2865 270.641 56.125C282.62 48.8333 295.641 45.1875 309.703 45.1875C324.286 45.1875 337.372 48.7682 348.961 55.9297C360.68 63.0911 370.055 72.7266 377.086 84.8359C384.247 96.8151 387.828 110.161 387.828 124.875L388.219 251.633C388.219 266.216 384.703 279.562 377.672 291.672C370.51 303.911 361.005 313.677 349.156 320.969C337.307 328.26 324.156 331.906 309.703 331.906ZM309.703 283.664C317.776 283.664 324.807 280.409 330.797 273.898C336.786 267.258 339.781 259.836 339.781 251.633L339.391 124.875C339.391 116.021 336.591 108.534 330.992 102.414C325.393 96.2943 318.297 93.2344 309.703 93.2344C301.5 93.2344 294.469 96.2292 288.609 102.219C282.75 108.208 279.82 115.76 279.82 124.875V251.633C279.82 260.357 282.75 267.909 288.609 274.289C294.469 280.539 301.5 283.664 309.703 283.664ZM396.812 326.047L446.422 51.2422C446.682 50.2005 447.333 49.6797 448.375 49.6797H506.383C507.424 49.6797 508.076 50.2005 508.336 51.2422L555.992 326.047C556.122 327.349 555.602 328 554.43 328H510.094C508.792 328 508.076 327.349 507.945 326.047L503.648 296.75H449.156L444.859 326.047C444.729 327.349 444.078 328 442.906 328H398.375C397.333 328 396.812 327.349 396.812 326.047ZM475.133 141.672L457.164 253.977H495.641L479.234 141.672L476.891 126.828L475.133 141.672ZM624.547 328H584.508C582.424 328 581.383 327.089 581.383 325.266L580.992 52.8047C580.992 50.7214 582.034 49.6797 584.117 49.6797H620.25L687.828 207.297L685.875 52.8047C685.875 50.7214 687.047 49.6797 689.391 49.6797H729.039C730.602 49.6797 731.383 50.7214 731.383 52.8047L731.773 325.656C731.773 327.219 731.122 328 729.82 328H694.664L625.328 180.734L628.258 324.875C628.258 326.958 627.021 328 624.547 328ZM810.094 328H770.055C767.971 328 766.93 327.089 766.93 325.266L766.539 52.8047C766.539 50.7214 767.581 49.6797 769.664 49.6797H805.797L873.375 207.297L871.422 52.8047C871.422 50.7214 872.594 49.6797 874.938 49.6797H914.586C916.148 49.6797 916.93 50.7214 916.93 52.8047L917.32 325.656C917.32 327.219 916.669 328 915.367 328H880.211L810.875 180.734L813.805 324.875C813.805 326.958 812.568 328 810.094 328ZM938.609 326.047L988.219 51.2422C988.479 50.2005 989.13 49.6797 990.172 49.6797H1048.18C1049.22 49.6797 1049.87 50.2005 1050.13 51.2422L1097.79 326.047C1097.92 327.349 1097.4 328 1096.23 328H1051.89C1050.59 328 1049.87 327.349 1049.74 326.047L1045.45 296.75H990.953L986.656 326.047C986.526 327.349 985.875 328 984.703 328H940.172C939.13 328 938.609 327.349 938.609 326.047ZM1016.93 141.672L998.961 253.977H1037.44L1021.03 141.672L1018.69 126.828L1016.93 141.672Z" fill="#E4C9FB"/>
<path d="M87.4375 321.359L86.1617 323.509L86.172 323.515L87.4375 321.359ZM59.3125 292.258L57.1143 293.449L57.1217 293.462L57.1293 293.476L59.3125 292.258ZM105.992 274.484L104.13 276.152L104.139 276.162L104.148 276.172L105.992 274.484ZM148.375 273.703L150.25 275.357L150.258 275.348L150.265 275.339L148.375 273.703ZM205.211 52.0234L202.711 52.0234L202.711 52.0284L205.211 52.0234ZM205.602 250.461L208.102 250.461L208.102 250.456L205.602 250.461ZM195.055 290.891L197.224 292.133L197.228 292.126L195.055 290.891ZM127.477 331.906V329.406C113.181 329.406 100.275 325.996 88.703 319.203L87.4375 321.359L86.172 323.515C98.5578 330.785 112.346 334.406 127.477 334.406V331.906ZM87.4375 321.359L88.7133 319.209C77.2547 312.41 68.1881 303.036 61.4957 291.04L59.3125 292.258L57.1293 293.476C64.239 306.22 73.9223 316.246 86.1617 323.509L87.4375 321.359ZM59.3125 292.258L61.5107 291.067C54.9537 278.962 51.6562 265.444 51.6562 250.461H49.1562H46.6562C46.6562 266.207 50.1296 280.554 57.1143 293.449L59.3125 292.258ZM49.1562 250.461H51.6562V231.906H49.1562H46.6562V250.461H49.1562ZM49.1562 231.906H51.6562C51.6562 231.771 51.6884 232.128 51.3146 232.502C50.9409 232.876 50.5833 232.844 50.7188 232.844V230.344V227.844C49.8126 227.844 48.6737 228.072 47.7791 228.967C46.8845 229.861 46.6562 231 46.6562 231.906H49.1562ZM50.7188 230.344V232.844H96.0312V230.344V227.844H50.7188V230.344ZM96.0312 230.344V232.844C96.0069 232.844 95.8665 232.839 95.6732 232.751C95.4662 232.656 95.2955 232.508 95.1813 232.351C95.078 232.209 95.0599 232.114 95.0665 232.141C95.0734 232.17 95.0938 232.278 95.0938 232.492H97.5938H100.094C100.094 231.547 99.9353 230.387 99.225 229.41C98.4071 228.286 97.1915 227.844 96.0312 227.844V230.344ZM97.5938 232.492H95.0938V250.461H97.5938H100.094V232.492H97.5938ZM97.5938 250.461H95.0938C95.0938 260.735 98.0541 269.37 104.13 276.152L105.992 274.484L107.854 272.816C102.732 267.099 100.094 259.718 100.094 250.461H97.5938ZM105.992 274.484L104.148 276.172C110.247 282.839 118.092 286.164 127.477 286.164V283.664V281.164C119.413 281.164 112.935 278.369 107.837 272.797L105.992 274.484ZM127.477 283.664V286.164C136.341 286.164 143.967 282.477 150.25 275.357L148.375 273.703L146.5 272.049C141.064 278.21 134.758 281.164 127.477 281.164V283.664ZM148.375 273.703L150.265 275.339C156.507 268.127 159.664 259.803 159.664 250.461H157.164H154.664C154.664 258.567 151.962 265.738 146.485 272.067L148.375 273.703ZM157.164 250.461H159.664V51.6328H157.164H154.664V250.461H157.164ZM157.164 51.6328H159.664C159.664 51.4973 159.696 51.8549 159.322 52.2287C158.949 52.6025 158.591 52.5703 158.727 52.5703V50.0703V47.5703C157.82 47.5703 156.682 47.7986 155.787 48.6932C154.892 49.5878 154.664 50.7266 154.664 51.6328H157.164ZM158.727 50.0703V52.5703H203.648V50.0703V47.5703H158.727V50.0703ZM203.648 50.0703V52.5703C203.653 52.5703 203.541 52.5713 203.37 52.5001C203.184 52.4225 203.004 52.2906 202.868 52.1203C202.741 51.9616 202.703 51.8341 202.698 51.8131C202.693 51.7969 202.711 51.8564 202.711 52.0234H205.211H207.711C207.711 51.1053 207.538 49.954 206.772 48.9969C205.922 47.9331 204.721 47.5703 203.648 47.5703V50.0703ZM205.211 52.0234L202.711 52.0284L203.102 250.466L205.602 250.461L208.102 250.456L207.711 52.0185L205.211 52.0234ZM205.602 250.461H203.102C203.102 264.622 199.693 277.672 192.881 289.655L195.055 290.891L197.228 292.126C204.479 279.37 208.102 265.466 208.102 250.461H205.602ZM195.055 290.891L192.885 289.648C185.918 301.809 176.758 311.466 165.397 318.661L166.734 320.773L168.072 322.885C180.148 315.237 189.868 304.972 197.224 292.133L195.055 290.891ZM166.734 320.773L165.397 318.661C154.095 325.819 141.477 329.406 127.477 329.406V331.906V334.406C142.382 334.406 155.936 330.572 168.072 322.885L166.734 320.773ZM270.445 320.969L269.135 323.098L269.145 323.104L270.445 320.969ZM241.734 291.867L239.577 293.13L239.585 293.143L239.593 293.157L241.734 291.867ZM230.992 251.633L228.492 251.625V251.633H230.992ZM231.383 124.875L233.883 124.883V124.875H231.383ZM242.125 84.8359L244.265 86.1291L244.273 86.1153L244.281 86.1014L242.125 84.8359ZM270.641 56.125L271.923 58.2708L271.932 58.2657L271.94 58.2605L270.641 56.125ZM348.961 55.9297L347.647 58.0564L347.657 58.0629L348.961 55.9297ZM377.086 84.8359L374.924 86.0913L374.932 86.1051L374.94 86.1187L377.086 84.8359ZM387.828 124.875H385.328L385.328 124.883L387.828 124.875ZM388.219 251.633H390.719L390.719 251.625L388.219 251.633ZM377.672 291.672L379.83 292.934L379.834 292.927L377.672 291.672ZM330.797 273.898L332.637 275.591L332.645 275.582L332.653 275.573L330.797 273.898ZM339.781 251.633H342.281L342.281 251.625L339.781 251.633ZM339.391 124.875H336.891L336.891 124.883L339.391 124.875ZM288.609 274.289L286.768 275.98L286.777 275.99L286.786 275.999L288.609 274.289ZM309.703 331.906V329.406C295.963 329.406 283.328 325.884 271.745 318.833L270.445 320.969L269.145 323.104C281.521 330.637 295.058 334.406 309.703 334.406V331.906ZM270.445 320.969L271.756 318.84C260.252 311.761 250.965 302.35 243.876 290.578L241.734 291.867L239.593 293.157C247.087 305.603 256.94 315.593 269.135 323.098L270.445 320.969ZM241.734 291.867L243.892 290.605C236.961 278.759 233.492 265.786 233.492 251.633H230.992H228.492C228.492 266.647 232.184 280.496 239.577 293.13L241.734 291.867ZM230.992 251.633L233.492 251.641L233.883 124.883L231.383 124.875L228.883 124.867L228.492 251.625L230.992 251.633ZM231.383 124.875H233.883C233.883 110.453 237.356 97.5597 244.265 86.1291L242.125 84.8359L239.985 83.5428C232.571 95.8101 228.883 109.61 228.883 124.875H231.383ZM242.125 84.8359L244.281 86.1014C251.099 74.4862 260.303 65.2179 271.923 58.2708L270.641 56.125L269.358 53.9792C257.02 61.355 247.214 71.2274 239.969 83.5704L242.125 84.8359ZM270.641 56.125L271.94 58.2605C283.527 51.2079 296.098 47.6875 309.703 47.6875V45.1875V42.6875C295.183 42.6875 281.713 46.4587 269.341 53.9895L270.641 56.125ZM309.703 45.1875V47.6875C323.856 47.6875 336.481 51.1563 347.647 58.0564L348.961 55.9297L350.275 53.803C338.264 46.3802 324.717 42.6875 309.703 42.6875V45.1875ZM348.961 55.9297L347.657 58.0629C359.014 65.0032 368.097 74.334 374.924 86.0913L377.086 84.8359L379.248 83.5806C372.012 71.1191 362.345 61.179 350.265 53.7965L348.961 55.9297ZM377.086 84.8359L374.94 86.1187C381.857 97.6888 385.328 110.588 385.328 124.875H387.828H390.328C390.328 109.735 386.638 95.9414 379.232 83.5531L377.086 84.8359ZM387.828 124.875L385.328 124.883L385.719 251.641L388.219 251.633L390.719 251.625L390.328 124.867L387.828 124.875ZM388.219 251.633H385.719C385.719 265.794 382.31 278.705 375.51 290.417L377.672 291.672L379.834 292.927C387.096 280.42 390.719 266.638 390.719 251.633H388.219ZM377.672 291.672L375.514 290.409C368.556 302.302 359.339 311.767 347.846 318.84L349.156 320.969L350.466 323.098C362.672 315.587 372.465 305.521 379.83 292.934L377.672 291.672ZM349.156 320.969L347.846 318.84C336.407 325.879 323.712 329.406 309.703 329.406V331.906V334.406C324.6 334.406 338.208 330.642 350.466 323.098L349.156 320.969ZM309.703 283.664V286.164C318.547 286.164 326.224 282.561 332.637 275.591L330.797 273.898L328.957 272.206C323.39 278.257 317.005 281.164 309.703 281.164V283.664ZM330.797 273.898L332.653 275.573C339.017 268.518 342.281 260.512 342.281 251.633H339.781H337.281C337.281 259.159 334.556 265.998 328.94 272.224L330.797 273.898ZM339.781 251.633L342.281 251.625L341.891 124.867L339.391 124.875L336.891 124.883L337.281 251.641L339.781 251.633ZM339.391 124.875H341.891C341.891 115.442 338.887 107.34 332.837 100.727L330.992 102.414L329.148 104.102C334.295 109.728 336.891 116.599 336.891 124.875H339.391ZM330.992 102.414L332.837 100.727C326.745 94.0683 318.97 90.7344 309.703 90.7344V93.2344V95.7344C317.624 95.7344 324.041 98.5202 329.148 104.102L330.992 102.414ZM309.703 93.2344V90.7344C300.811 90.7344 293.141 94.0118 286.822 100.471L288.609 102.219L290.396 103.967C295.797 98.4466 302.189 95.7344 309.703 95.7344V93.2344ZM288.609 102.219L286.822 100.471C280.464 106.97 277.32 115.17 277.32 124.875H279.82H282.32C282.32 116.351 285.036 109.446 290.396 103.967L288.609 102.219ZM279.82 124.875H277.32V251.633H279.82H282.32V124.875H279.82ZM279.82 251.633H277.32C277.32 260.978 280.482 269.135 286.768 275.98L288.609 274.289L290.451 272.598C285.018 266.683 282.32 259.735 282.32 251.633H279.82ZM288.609 274.289L286.786 275.999C293.094 282.728 300.775 286.164 309.703 286.164V283.664V281.164C302.225 281.164 295.844 278.35 290.433 272.579L288.609 274.289ZM396.812 326.047L394.352 325.603L394.312 325.823V326.047H396.812ZM446.422 51.2422L443.997 50.6358L443.976 50.7164L443.962 50.7981L446.422 51.2422ZM508.336 51.2422L510.799 50.815L510.784 50.7247L510.761 50.6358L508.336 51.2422ZM555.992 326.047L558.48 325.798L558.471 325.708L558.455 325.62L555.992 326.047ZM507.945 326.047L510.433 325.798L510.427 325.741L510.419 325.684L507.945 326.047ZM503.648 296.75L506.122 296.387L505.809 294.25H503.648V296.75ZM449.156 296.75V294.25H446.996L446.683 296.387L449.156 296.75ZM444.859 326.047L442.386 325.684L442.377 325.741L442.372 325.798L444.859 326.047ZM475.133 141.672L477.601 142.067L477.609 142.017L477.615 141.966L475.133 141.672ZM457.164 253.977L454.695 253.582L454.232 256.477H457.164V253.977ZM495.641 253.977V256.477H498.532L498.114 253.615L495.641 253.977ZM479.234 141.672L481.708 141.31L481.706 141.296L481.704 141.282L479.234 141.672ZM476.891 126.828L479.36 126.438L474.408 126.534L476.891 126.828ZM396.812 326.047L399.273 326.491L448.882 51.6863L446.422 51.2422L443.962 50.7981L394.352 325.603L396.812 326.047ZM446.422 51.2422L448.847 51.8485C448.883 51.7048 448.878 51.8536 448.667 52.0225C448.569 52.1007 448.472 52.1452 448.402 52.1668C448.338 52.1866 448.321 52.1797 448.375 52.1797V49.6797V47.1797C447.431 47.1797 446.414 47.4221 445.544 48.1181C444.682 48.8079 444.221 49.7379 443.997 50.6358L446.422 51.2422ZM448.375 49.6797V52.1797H506.383V49.6797V47.1797H448.375V49.6797ZM506.383 49.6797V52.1797C506.437 52.1797 506.42 52.1866 506.356 52.1668C506.286 52.1452 506.188 52.1007 506.091 52.0225C505.879 51.8536 505.875 51.7048 505.911 51.8485L508.336 51.2422L510.761 50.6358C510.537 49.7379 510.076 48.8079 509.214 48.1181C508.344 47.4221 507.326 47.1797 506.383 47.1797V49.6797ZM508.336 51.2422L505.873 51.6694L553.529 326.474L555.992 326.047L558.455 325.62L510.799 50.815L508.336 51.2422ZM555.992 326.047L553.505 326.296C553.54 326.654 553.419 326.36 553.747 325.95C553.918 325.737 554.124 325.608 554.289 325.545C554.434 325.489 554.501 325.5 554.43 325.5V328V330.5C555.451 330.5 556.746 330.206 557.651 329.073C558.5 328.013 558.574 326.741 558.48 325.798L555.992 326.047ZM554.43 328V325.5H510.094V328V330.5H554.43V328ZM510.094 328V325.5C509.972 325.5 509.95 325.484 509.995 325.499C510.049 325.516 510.153 325.563 510.262 325.662C510.37 325.761 510.426 325.859 510.447 325.907C510.464 325.947 510.445 325.923 510.433 325.798L507.945 326.047L505.458 326.296C505.562 327.343 505.943 328.493 506.898 329.362C507.856 330.232 509.039 330.5 510.094 330.5V328ZM507.945 326.047L510.419 325.684L506.122 296.387L503.648 296.75L501.175 297.113L505.472 326.41L507.945 326.047ZM503.648 296.75V294.25H449.156V296.75V299.25H503.648V296.75ZM449.156 296.75L446.683 296.387L442.386 325.684L444.859 326.047L447.333 326.41L451.63 297.113L449.156 296.75ZM444.859 326.047L442.372 325.798C442.34 326.112 442.281 325.968 442.506 325.744C442.618 325.632 442.744 325.56 442.847 325.524C442.939 325.491 442.971 325.5 442.906 325.5V328V330.5C443.965 330.5 445.128 330.193 446.041 329.279C446.916 328.404 447.248 327.284 447.347 326.296L444.859 326.047ZM442.906 328V325.5H398.375V328V330.5H442.906V328ZM398.375 328V325.5C398.371 325.5 398.482 325.499 398.653 325.57C398.839 325.648 399.019 325.78 399.155 325.95C399.282 326.109 399.32 326.236 399.326 326.257C399.33 326.273 399.312 326.214 399.312 326.047H396.812H394.312C394.312 326.965 394.485 328.116 395.251 329.073C396.102 330.137 397.302 330.5 398.375 330.5V328ZM475.133 141.672L472.664 141.277L454.695 253.582L457.164 253.977L459.633 254.372L477.601 142.067L475.133 141.672ZM457.164 253.977V256.477H495.641V253.977V251.477H457.164V253.977ZM495.641 253.977L498.114 253.615L481.708 141.31L479.234 141.672L476.761 142.033L493.167 254.338L495.641 253.977ZM479.234 141.672L481.704 141.282L479.36 126.438L476.891 126.828L474.421 127.218L476.765 142.062L479.234 141.672ZM476.891 126.828L474.408 126.534L472.65 141.378L475.133 141.672L477.615 141.966L479.373 127.122L476.891 126.828ZM581.383 325.266L583.883 325.266L583.883 325.262L581.383 325.266ZM580.992 52.8047L578.492 52.8047L578.492 52.8083L580.992 52.8047ZM620.25 49.6797L622.548 48.6945L621.898 47.1797H620.25V49.6797ZM687.828 207.297L685.53 208.282L690.328 207.265L687.828 207.297ZM685.875 52.8047H683.375V52.8205L683.375 52.8363L685.875 52.8047ZM731.383 52.8047L728.883 52.8047L728.883 52.8083L731.383 52.8047ZM731.773 325.656L734.273 325.656L734.273 325.653L731.773 325.656ZM694.664 328L692.402 329.065L693.078 330.5H694.664V328ZM625.328 180.734L627.59 179.669L622.829 180.785L625.328 180.734ZM628.258 324.875H630.758V324.85L630.757 324.824L628.258 324.875ZM624.547 328V325.5H584.508V328V330.5H624.547V328ZM584.508 328V325.5C584.161 325.5 583.951 325.461 583.841 325.429C583.738 325.399 583.753 325.385 583.81 325.435C583.875 325.492 583.908 325.554 583.914 325.572C583.915 325.575 583.883 325.489 583.883 325.266H581.383H578.883C578.883 326.656 579.295 328.128 580.518 329.198C581.676 330.212 583.157 330.5 584.508 330.5V328ZM581.383 325.266L583.883 325.262L583.492 52.8011L580.992 52.8047L578.492 52.8083L578.883 325.269L581.383 325.266ZM580.992 52.8047H583.492C583.492 52.1484 583.655 52.1153 583.541 52.2287C583.428 52.3421 583.461 52.1797 584.117 52.1797V49.6797V47.1797C582.69 47.1797 581.161 47.5381 580.006 48.6932C578.851 49.8482 578.492 51.3777 578.492 52.8047H580.992ZM584.117 49.6797V52.1797H620.25V49.6797V47.1797H584.117V49.6797ZM620.25 49.6797L617.952 50.6648L685.53 208.282L687.828 207.297L690.126 206.312L622.548 48.6945L620.25 49.6797ZM687.828 207.297L690.328 207.265L688.375 52.7731L685.875 52.8047L683.375 52.8363L685.328 207.328L687.828 207.297ZM685.875 52.8047H688.375C688.375 52.512 688.417 52.3652 688.436 52.3153C688.449 52.2801 688.445 52.3025 688.415 52.3295C688.363 52.3759 688.536 52.1797 689.391 52.1797V49.6797V47.1797C687.901 47.1797 686.317 47.5043 685.093 48.5924C683.813 49.7304 683.375 51.2964 683.375 52.8047H685.875ZM689.391 49.6797V52.1797H729.039V49.6797V47.1797H689.391V49.6797ZM729.039 49.6797V52.1797C729.155 52.1797 729.138 52.1989 729.049 52.1595C728.946 52.1137 728.853 52.0363 728.797 51.9609C728.751 51.8997 728.776 51.9022 728.811 52.0438C728.847 52.1881 728.883 52.432 728.883 52.8047H731.383H733.883C733.883 51.5226 733.655 50.1053 732.797 48.9609C731.837 47.6814 730.43 47.1797 729.039 47.1797V49.6797ZM731.383 52.8047L728.883 52.8083L729.273 325.66L731.773 325.656L734.273 325.653L733.883 52.8011L731.383 52.8047ZM731.773 325.656H729.273C729.273 325.881 729.249 325.989 729.243 326.013C729.238 326.03 729.26 325.939 729.365 325.814C729.477 325.679 729.619 325.583 729.746 325.532C729.859 325.487 729.901 325.5 729.82 325.5V328V330.5C730.989 330.5 732.278 330.128 733.206 329.015C734.061 327.989 734.273 326.723 734.273 325.656H731.773ZM729.82 328V325.5H694.664V328V330.5H729.82V328ZM694.664 328L696.926 326.935L627.59 179.669L625.328 180.734L623.066 181.799L692.402 329.065L694.664 328ZM625.328 180.734L622.829 180.785L625.758 324.926L628.258 324.875L630.757 324.824L627.828 180.684L625.328 180.734ZM628.258 324.875H625.758C625.758 325.154 625.716 325.285 625.701 325.322C625.693 325.344 625.7 325.323 625.72 325.306C625.737 325.292 625.493 325.5 624.547 325.5V328V330.5C626.074 330.5 627.686 330.187 628.94 329.131C630.277 328.005 630.758 326.425 630.758 324.875H628.258ZM766.93 325.266L769.43 325.266L769.43 325.262L766.93 325.266ZM766.539 52.8047L764.039 52.8047L764.039 52.8083L766.539 52.8047ZM805.797 49.6797L808.095 48.6945L807.445 47.1797H805.797V49.6797ZM873.375 207.297L871.077 208.282L875.875 207.265L873.375 207.297ZM871.422 52.8047H868.922V52.8205L868.922 52.8363L871.422 52.8047ZM916.93 52.8047L914.43 52.8047L914.43 52.8083L916.93 52.8047ZM917.32 325.656L919.82 325.656L919.82 325.653L917.32 325.656ZM880.211 328L877.949 329.065L878.625 330.5H880.211V328ZM810.875 180.734L813.137 179.669L808.376 180.785L810.875 180.734ZM813.805 324.875H816.305V324.85L816.304 324.824L813.805 324.875ZM810.094 328V325.5H770.055V328V330.5H810.094V328ZM770.055 328V325.5C769.708 325.5 769.497 325.461 769.388 325.429C769.285 325.399 769.3 325.385 769.357 325.435C769.422 325.492 769.454 325.554 769.461 325.572C769.462 325.575 769.43 325.489 769.43 325.266H766.93H764.43C764.43 326.656 764.842 328.128 766.065 329.198C767.223 330.212 768.704 330.5 770.055 330.5V328ZM766.93 325.266L769.43 325.262L769.039 52.8011L766.539 52.8047L764.039 52.8083L764.43 325.269L766.93 325.266ZM766.539 52.8047H769.039C769.039 52.1484 769.201 52.1153 769.088 52.2287C768.975 52.3421 769.008 52.1797 769.664 52.1797V49.6797V47.1797C768.237 47.1797 766.708 47.5381 765.553 48.6932C764.398 49.8482 764.039 51.3777 764.039 52.8047H766.539ZM769.664 49.6797V52.1797H805.797V49.6797V47.1797H769.664V49.6797ZM805.797 49.6797L803.499 50.6648L871.077 208.282L873.375 207.297L875.673 206.312L808.095 48.6945L805.797 49.6797ZM873.375 207.297L875.875 207.265L873.922 52.7731L871.422 52.8047L868.922 52.8363L870.875 207.328L873.375 207.297ZM871.422 52.8047H873.922C873.922 52.512 873.964 52.3652 873.982 52.3153C873.996 52.2801 873.992 52.3025 873.962 52.3295C873.909 52.3759 874.083 52.1797 874.938 52.1797V49.6797V47.1797C873.448 47.1797 871.864 47.5043 870.64 48.5924C869.36 49.7304 868.922 51.2964 868.922 52.8047H871.422ZM874.938 49.6797V52.1797H914.586V49.6797V47.1797H874.938V49.6797ZM914.586 49.6797V52.1797C914.701 52.1797 914.685 52.1989 914.596 52.1595C914.493 52.1137 914.4 52.0363 914.344 51.9609C914.298 51.8997 914.322 51.9022 914.358 52.0438C914.394 52.1881 914.43 52.432 914.43 52.8047H916.93H919.43C919.43 51.5226 919.202 50.1053 918.344 48.9609C917.384 47.6814 915.977 47.1797 914.586 47.1797V49.6797ZM916.93 52.8047L914.43 52.8083L914.82 325.66L917.32 325.656L919.82 325.653L919.43 52.8011L916.93 52.8047ZM917.32 325.656H914.82C914.82 325.881 914.796 325.989 914.789 326.013C914.785 326.03 914.807 325.939 914.911 325.814C915.024 325.679 915.166 325.583 915.293 325.532C915.405 325.487 915.448 325.5 915.367 325.5V328V330.5C916.536 330.5 917.825 330.128 918.753 329.015C919.607 327.989 919.82 326.723 919.82 325.656H917.32ZM915.367 328V325.5H880.211V328V330.5H915.367V328ZM880.211 328L882.473 326.935L813.137 179.669L810.875 180.734L808.613 181.799L877.949 329.065L880.211 328ZM810.875 180.734L808.376 180.785L811.305 324.926L813.805 324.875L816.304 324.824L813.374 180.684L810.875 180.734ZM813.805 324.875H811.305C811.305 325.154 811.263 325.285 811.248 325.322C811.24 325.344 811.247 325.323 811.267 325.306C811.284 325.292 811.04 325.5 810.094 325.5V328V330.5C811.621 330.5 813.233 330.187 814.487 329.131C815.824 328.005 816.305 326.425 816.305 324.875H813.805ZM938.609 326.047L936.149 325.603L936.109 325.823V326.047H938.609ZM988.219 51.2422L985.793 50.6358L985.773 50.7164L985.759 50.7981L988.219 51.2422ZM1050.13 51.2422L1052.6 50.815L1052.58 50.7247L1052.56 50.6358L1050.13 51.2422ZM1097.79 326.047L1100.28 325.798L1100.27 325.708L1100.25 325.62L1097.79 326.047ZM1049.74 326.047L1052.23 325.798L1052.22 325.741L1052.22 325.684L1049.74 326.047ZM1045.45 296.75L1047.92 296.387L1047.61 294.25H1045.45V296.75ZM990.953 296.75V294.25H988.793L988.48 296.387L990.953 296.75ZM986.656 326.047L984.183 325.684L984.174 325.741L984.169 325.798L986.656 326.047ZM1016.93 141.672L1019.4 142.067L1019.41 142.017L1019.41 141.966L1016.93 141.672ZM998.961 253.977L996.492 253.582L996.029 256.477H998.961V253.977ZM1037.44 253.977V256.477H1040.33L1039.91 253.615L1037.44 253.977ZM1021.03 141.672L1023.5 141.31L1023.5 141.296L1023.5 141.282L1021.03 141.672ZM1018.69 126.828L1021.16 126.438L1016.2 126.534L1018.69 126.828ZM938.609 326.047L941.07 326.491L990.679 51.6863L988.219 51.2422L985.759 50.7981L936.149 325.603L938.609 326.047ZM988.219 51.2422L990.644 51.8485C990.68 51.7048 990.675 51.8536 990.464 52.0225C990.366 52.1007 990.269 52.1452 990.199 52.1668C990.135 52.1866 990.118 52.1797 990.172 52.1797V49.6797V47.1797C989.228 47.1797 988.211 47.4221 987.341 48.1181C986.478 48.8079 986.018 49.7379 985.793 50.6358L988.219 51.2422ZM990.172 49.6797V52.1797H1048.18V49.6797V47.1797H990.172V49.6797ZM1048.18 49.6797V52.1797C1048.23 52.1797 1048.22 52.1866 1048.15 52.1668C1048.08 52.1452 1047.99 52.1007 1047.89 52.0225C1047.68 51.8536 1047.67 51.7048 1047.71 51.8485L1050.13 51.2422L1052.56 50.6358C1052.33 49.7379 1051.87 48.8079 1051.01 48.1181C1050.14 47.4221 1049.12 47.1797 1048.18 47.1797V49.6797ZM1050.13 51.2422L1047.67 51.6694L1095.33 326.474L1097.79 326.047L1100.25 325.62L1052.6 50.815L1050.13 51.2422ZM1097.79 326.047L1095.3 326.296C1095.34 326.654 1095.22 326.36 1095.54 325.95C1095.71 325.737 1095.92 325.608 1096.09 325.545C1096.23 325.489 1096.3 325.5 1096.23 325.5V328V330.5C1097.25 330.5 1098.54 330.206 1099.45 329.073C1100.3 328.013 1100.37 326.741 1100.28 325.798L1097.79 326.047ZM1096.23 328V325.5H1051.89V328V330.5H1096.23V328ZM1051.89 328V325.5C1051.77 325.5 1051.75 325.484 1051.79 325.499C1051.85 325.516 1051.95 325.563 1052.06 325.662C1052.17 325.761 1052.22 325.859 1052.24 325.907C1052.26 325.947 1052.24 325.923 1052.23 325.798L1049.74 326.047L1047.25 326.296C1047.36 327.343 1047.74 328.493 1048.7 329.362C1049.65 330.232 1050.84 330.5 1051.89 330.5V328ZM1049.74 326.047L1052.22 325.684L1047.92 296.387L1045.45 296.75L1042.97 297.113L1047.27 326.41L1049.74 326.047ZM1045.45 296.75V294.25H990.953V296.75V299.25H1045.45V296.75ZM990.953 296.75L988.48 296.387L984.183 325.684L986.656 326.047L989.13 326.41L993.427 297.113L990.953 296.75ZM986.656 326.047L984.169 325.798C984.137 326.112 984.078 325.968 984.303 325.744C984.415 325.632 984.541 325.56 984.644 325.524C984.736 325.491 984.768 325.5 984.703 325.5V328V330.5C985.762 330.5 986.925 330.193 987.838 329.279C988.713 328.404 989.045 327.284 989.144 326.296L986.656 326.047ZM984.703 328V325.5H940.172V328V330.5H984.703V328ZM940.172 328V325.5C940.168 325.5 940.279 325.499 940.45 325.57C940.636 325.648 940.816 325.78 940.952 325.95C941.079 326.109 941.117 326.236 941.123 326.257C941.127 326.273 941.109 326.214 941.109 326.047H938.609H936.109C936.109 326.965 936.282 328.116 937.048 329.073C937.899 330.137 939.099 330.5 940.172 330.5V328ZM1016.93 141.672L1014.46 141.277L996.492 253.582L998.961 253.977L1001.43 254.372L1019.4 142.067L1016.93 141.672ZM998.961 253.977V256.477H1037.44V253.977V251.477H998.961V253.977ZM1037.44 253.977L1039.91 253.615L1023.5 141.31L1021.03 141.672L1018.56 142.033L1034.96 254.338L1037.44 253.977ZM1021.03 141.672L1023.5 141.282L1021.16 126.438L1018.69 126.828L1016.22 127.218L1018.56 142.062L1021.03 141.672ZM1018.69 126.828L1016.2 126.534L1014.45 141.378L1016.93 141.672L1019.41 141.966L1021.17 127.122L1018.69 126.828Z" fill="#E4C9FB"/>
<path d="M938.508 350.5C959.136 350.5 977.886 353.08 994.732 358.274L996.356 358.785L996.369 358.79L997.974 359.322C1014.45 364.888 1027.69 372.281 1037.6 381.573H1037.6C1048.07 391.225 1053.5 402.287 1053.5 414.7V428.916C1053.5 429.637 1053.28 430.358 1052.8 430.972C1052.36 431.551 1051.79 431.902 1051.29 432.117C1050.35 432.524 1049.24 432.625 1048.2 432.625H983.84C982.95 432.625 981.892 432.519 980.973 432.022C980.475 431.754 979.977 431.347 979.613 430.757C979.245 430.16 979.102 429.517 979.102 428.916V417.12C979.102 410.325 975.635 404.537 967.962 399.73C960.246 394.897 950.477 392.399 938.508 392.399C927.889 392.399 918.533 394.778 910.372 399.476C902.153 404.207 898.753 409.332 898.753 414.7V512.846C898.753 518.355 902.11 523.524 910.113 528.233C918.063 532.811 927.498 535.147 938.508 535.147C950.509 535.147 960.308 532.837 968.039 528.374C975.787 523.801 979.102 518.598 979.102 512.846V500.072H941.586C940.435 500.072 939.205 499.943 938.175 499.438C937.625 499.167 937.057 498.753 936.631 498.125C936.193 497.479 936.008 496.758 936.008 496.06V461.429C936.008 460.73 936.193 460.01 936.631 459.364C937.057 458.736 937.625 458.321 938.175 458.051C939.205 457.545 940.436 457.417 941.586 457.417H1048.76C1049.71 457.417 1050.86 457.563 1051.84 458.224C1052.99 459.002 1053.5 460.211 1053.5 461.429V512.846C1053.5 525.263 1048.07 536.378 1037.59 546.131L1037.58 546.139L1037.58 546.146C1026.99 555.816 1013.13 563.43 996.098 569.057C979.012 574.699 959.805 577.5 938.508 577.5C917.582 577.5 898.655 574.698 881.757 569.056V569.057C864.72 563.43 850.86 555.816 840.278 546.146L840.271 546.139L840.262 546.131C829.783 536.378 824.354 525.263 824.354 512.846V414.7C824.355 402.926 829.569 392.313 839.584 382.902L840.568 381.995C850.646 372.624 863.972 365.19 880.439 359.625L882.044 359.092C899.301 353.354 918.13 350.5 938.508 350.5ZM240.612 353.979C275.919 353.979 304.107 359.807 324.961 371.697H324.96C346.086 383.535 357.004 399.957 357.004 420.9C357.004 436.106 351.406 449.381 340.334 460.613L340.311 460.637C329.175 471.635 314.837 480.079 297.385 486.025C279.935 491.97 261.004 494.931 240.612 494.931H199.458V570.463C199.458 571.114 199.303 571.803 198.911 572.438C198.524 573.065 197.991 573.503 197.447 573.797C196.435 574.344 195.236 574.476 194.16 574.476H129.798C128.722 574.476 127.523 574.344 126.511 573.797C125.967 573.503 125.434 573.065 125.047 572.438C124.655 571.803 124.5 571.114 124.5 570.463V570.45L125.619 357.675C125.621 357.077 125.766 356.439 126.132 355.847C126.496 355.256 126.993 354.85 127.49 354.581C128.41 354.084 129.469 353.979 130.358 353.979H240.612ZM199.458 396.011V452.427H240.612C251.921 452.427 261.685 449.611 270.002 444.048L270.802 443.5C279.154 437.57 283.165 430.085 283.165 420.9C283.165 413.852 279.739 407.973 272.283 403.194L272.273 403.188L272.265 403.183C264.798 398.303 254.334 395.728 240.621 395.727L199.458 396.011ZM657.628 569.556C657.628 570.448 657.372 571.328 656.812 572.092C656.273 572.828 655.555 573.319 654.835 573.646C653.457 574.274 651.695 574.476 649.812 574.476H592.445C590.835 574.476 589.27 574.297 588.02 573.706C587.361 573.395 586.7 572.926 586.205 572.225C585.696 571.502 585.47 570.683 585.469 569.865L584.909 358.904V358.897C584.909 358.095 585.099 357.274 585.561 356.526C586.018 355.785 586.656 355.253 587.34 354.884C588.632 354.185 590.25 353.979 591.886 353.979H644.863L645.613 354.925L737.803 471.125L735.18 358.956L735.179 358.927V358.897C735.179 358.036 735.412 357.175 735.939 356.414C736.453 355.674 737.147 355.17 737.855 354.83C739.205 354.182 740.916 353.979 742.716 353.979H799.521C800.866 353.979 802.325 354.207 803.502 355.055C804.828 356.01 805.378 357.439 805.38 358.892L805.939 570.154V570.161C805.939 571.524 805.348 572.809 804.1 573.619C803.038 574.307 801.764 574.476 800.642 574.476H749.134L748.387 573.618L653.694 464.929L657.627 569.462L657.628 569.509V569.556ZM568.03 478.518C568.03 479.119 567.886 479.762 567.518 480.359C567.154 480.949 566.656 481.355 566.159 481.624C565.24 482.121 564.181 482.228 563.291 482.228H447.702V531.366H563.291C564.24 531.366 565.393 531.512 566.37 532.173C567.522 532.951 568.03 534.161 568.03 535.379V570.766C568.03 571.367 567.886 572.011 567.518 572.607C567.154 573.197 566.656 573.603 566.159 573.872C565.24 574.369 564.181 574.476 563.291 574.476H378.042C377.093 574.476 375.941 574.329 374.964 573.669C373.812 572.891 373.304 571.681 373.304 570.463V570.457L373.863 357.682C373.864 357.082 374.008 356.441 374.375 355.847C374.739 355.256 375.237 354.85 375.734 354.581C376.654 354.084 377.712 353.979 378.602 353.979H562.731C563.681 353.979 564.833 354.124 565.811 354.784C566.963 355.563 567.471 356.772 567.471 357.99V392.621C567.471 393.222 567.326 393.866 566.958 394.463C566.594 395.053 566.097 395.459 565.6 395.728C564.68 396.224 563.621 396.331 562.731 396.331H447.702V439.724H562.731C563.621 439.724 564.68 439.829 565.6 440.326C566.097 440.595 566.594 441.002 566.958 441.592C567.318 442.176 567.463 442.804 567.47 443.394L568.029 478.478L568.03 478.498V478.518Z" fill="#E4C9FB" stroke="#E4C9FB" stroke-width="5"/>
</g>
<defs>
<clipPath id="clip0_61_128">
<rect width="1153" height="625" fill="white"/>
</clipPath>
</defs>
</svg>
